<svg xmlns="http://www.w3.org/2000/svg" width="256" height="256" viewBox="0 0 100 100"><rect width="100" height="100" rx="0" fill="#85006c"></rect><path fill="#fff" d="M30.19 77.34L30.19 77.34Q28.72 77.34 27.77 76.39Q26.83 75.45 26.83 73.98L26.83 73.98L26.83 26.03Q26.83 24.55 27.77 23.61Q28.72 22.67 30.19 22.67L30.19 22.67Q31.66 22.67 32.57 23.61Q33.48 24.55 33.48 26.03L33.48 26.03L33.48 46.68L66.52 46.68L66.52 26.03Q66.52 24.55 67.50 23.61Q68.48 22.67 69.88 22.67L69.88 22.67Q71.35 22.67 72.26 23.61Q73.17 24.55 73.17 26.03L73.17 26.03L73.17 73.98Q73.17 75.45 72.26 76.39Q71.35 77.34 69.88 77.34L69.88 77.34Q68.48 77.34 67.50 76.39Q66.52 75.45 66.52 73.98L66.52 73.98L66.52 52.63L33.48 52.63L33.48 73.98Q33.48 75.45 32.57 76.39Q31.66 77.34 30.19 77.34Z"></path></svg>