<svg xmlns="http://www.w3.org/2000/svg" viewBox="0 0 1500 1500">
	<path fill="currentColor" d="M365.9 740.5c-11.7-66.3-69.4-119.6-128.8-119-59.4.6-98.1 54.8-86.4 121.1 11.7 66.3 69.4 119.6 128.8 119 59.5-.6 98.2-54.8 86.4-121.1zm-79-95c8.6 5 17 10.1 24.2 17 0 0 8.7 8.8 14.2 17.7 1.2 1.9 2.1 4 2.5 6.2.6 3.5-.7 4.6-5.5 6.8-9.6 4.4-19.3 8.8-28.9 13.2-5 2.3-10.7-.3-11.7-5.6-3.3-16.8-6.5-33.7-9.7-50.6.4-8.7 11.5-6.7 14.9-4.7zm-19.8 74.7c1.9-4 6.7-5.9 11.1-4.4 6.6 2.2 11.1 10.4 9.3 17.1-1.1 4.2-4.2 6.6-8.5 6.5-8.5-.1-15.6-11.5-11.9-19.2zm-79.2-63.9c11.2-11.4 24.5-19 40.2-22.1.3-.1.2 0 0 0 5-.1 17.1-1.9 20.8 17.7 3.2 14.8 6.6 29.5 9.9 44.2.5 2.1 1.7 4.4-.7 6.4-2.3 1.9-4.3 3-7.7 1.7-19.4-7.3-39-14.1-58.6-21.2-6.3-2.3-8.3-6-9.2-12.9-.7-5.8 1.4-9.9 5.3-13.8zm65.2 88.7c-9.7 19.8-19.4 39.6-29.3 59.4-3.1 6.2-8.2 6.9-17.5 5.4-7.7-1.3-11.4-6.5-15.3-11.8-13.7-18.4-25.4-38.8-25.6-61.8-.1-8.8 5.7-18 10.8-20.1.5-.2 1-.3 1.5-.4 2.1-.4 4.2-.2 6.2.3 6.3 1.5 12.7 3 19.1 4.6 14.5 3.7 29 7.5 43.5 11.3 4.4 1 8.5 9.1 6.6 13.1zm77.4 71.8c-1 9.1-5.3 15.3-13.4 19.4-8.5 4.3-17.1 7.5-26.5 8.9-6.2.9-12.6.8-18.8-.2-11.2-1.8-18.3-13-15-23.9 6.8-19.5 13.6-38.9 20.4-58.4 1.5-4.4 9.4-5.5 12.6-1.7l28.2 33.9c3.1 3.7 6.1 7.4 9.2 11.1 2.6 3.1 3.8 7 3.3 10.9zm23.7-40.4c-2.4 7.7-12.3 9.7-17.8 3.9l-31.3-33.4c-2.2-2.3-3.4-5.4-3.4-8.5v-1.2c0-5.1 3.1-9.7 7.9-11.6l24.1-9.5c5.7-2.3 12.2.2 14.9 5.7 3.7 7.4 7.9 18.5 7.9 31.5 0 10.8-.6 17.9-2.3 23.1z"/>
	<path fill="currentColor" d="M434.6 638.7h30.5v88.1c5.8-8 16-17.5 33.5-17.5 9.5 0 23.5 2.7 32 13.3 7.5 9.3 8.5 20 8.5 30.5v68.1h-30.5v-59.1c0-6-.2-15.5-5.8-21.3-4.8-5-11.3-5.5-14.3-5.5-8 0-14.3 2.8-18.8 9.5-4.5 7-4.8 14.8-4.8 21v55.3h-30.5V638.7zM596 712.8v61.3c0 5.8.5 13.5 6.5 19 3.8 3.3 9.8 5.5 15.5 5.5 5.8 0 11.8-2.3 15.5-5.5 6-5.5 6.5-13.3 6.5-19v-61.3h30.5v66.3c0 9.8-1.3 22.8-13.3 33.3-10 8.8-26 12.3-39.3 12.3-13.3 0-29.3-3.5-39.3-12.3-12-10.5-13.3-23.5-13.3-33.3v-66.3H596zM730.2 726.8c10.8-15 26-17.5 35.3-17.5 32 0 53.3 24.8 53.3 57.6 0 33-22 57.8-54.1 57.8-7 0-22.8-1.2-34.5-17.5v14h-30.5V638.7h30.5v88.1zm-3 40.1c0 17.3 12.5 30.8 30 30.8s30-13.5 30-30.8-12.5-30.5-30-30.5c-17.5-.1-30 13.2-30 30.5zM923.9 745.9c-6.5-6-14.5-9.5-25-9.5-20.3 0-30.5 14.8-30.5 30.5 0 17.8 13.3 30.8 31.5 30.8 6.8 0 15.8-2 24-9.5V818c-6 3-15.5 6.8-28 6.8-17 0-32-6.5-41.8-15.8-8.3-7.8-17.3-21.3-17.3-41.5 0-19 7.8-34.3 18.8-44 13.3-11.8 28.5-14 39-14 11.3 0 20.5 2.3 29.3 6.5v29.9zM1030 712.8h30.5v108.4H1030v-14c-11 15.8-25.5 17.5-33.3 17.5-33.3 0-55.3-26-55.3-57.8 0-32 21.8-57.6 53.8-57.6 8.3 0 24.5 1.5 34.8 17.5v-14zm-57 54.1c0 17.3 12.5 30.8 30 30.8s30-13.5 30-30.8-12.5-30.5-30-30.5c-17.5-.1-30 13.2-30 30.5zM1120.1 878.5h-30.5V712.8h30.5v14c4.8-6.8 15.3-17.5 35.3-17.5 9.5 0 24.8 2.3 37 14.5 8 8 16.3 21.5 16.3 43 0 24.5-10.8 37.8-17 43.8-8.3 7.8-20.8 14-36.8 14-7.5 0-22.8-1.2-34.8-17.5v71.4zm7.3-134.9c-6.8 5.8-10.3 13.3-10.3 23.3s4 18.3 10 23.5c4 3.5 10.5 7.3 20 7.3 10 0 16.5-4 20.5-7.8 6.5-6 9.5-15 9.5-23s-3.3-17-9.3-22.8c-5.5-5-13.5-7.8-20.8-7.8-7.8 0-14.1 2.3-19.6 7.3zM1262.8 878.5h-30.5V712.8h30.5v14c4.8-6.8 15.3-17.5 35.3-17.5 9.5 0 24.8 2.3 37 14.5 8 8 16.3 21.5 16.3 43 0 24.5-10.8 37.8-17 43.8-8.3 7.8-20.8 14-36.8 14-7.5 0-22.8-1.2-34.8-17.5v71.4zm7.3-134.9c-6.8 5.8-10.3 13.3-10.3 23.3s4 18.3 10 23.5c4 3.5 10.5 7.3 20 7.3 10 0 16.5-4 20.5-7.8 6.5-6 9.5-15 9.5-23s-3.3-17-9.3-22.8c-5.5-5-13.5-7.8-20.8-7.8-7.9 0-14.1 2.3-19.6 7.3z"/>
</svg>